<svg width="10" height="17" viewBox="0 0 10 17" fill="none" xmlns="http://www.w3.org/2000/svg">
<path d="M0 4.75781C0 3.82031 0.234375 2.99609 0.703125 2.28516C1.17188 1.56641 1.78906 1.00781 2.55469 0.609375C3.32031 0.203125 4.15234 0 5.05078 0C5.76953 0 6.5 0.148438 7.24219 0.445312C7.99219 0.742188 8.69922 1.21484 9.36328 1.86328L7.80469 4.76953C7.33594 4.33203 6.87109 4.01953 6.41016 3.83203C5.95703 3.63672 5.53516 3.53906 5.14453 3.53906C4.60547 3.53906 4.15625 3.66797 3.79688 3.92578C3.44531 4.17578 3.26953 4.46094 3.26953 4.78125C3.26953 5.09375 3.38672 5.375 3.62109 5.625C3.85547 5.875 4.14844 6.12891 4.5 6.38672C4.85156 6.64453 5.19922 6.94922 5.54297 7.30078C5.89453 7.64453 6.1875 8.07031 6.42188 8.57812C6.65625 9.08594 6.77344 9.71484 6.77344 10.4648V10.6992H3.38672V10.4883C3.38672 10.0195 3.30469 9.64062 3.14062 9.35156C2.97656 9.05469 2.76562 8.80469 2.50781 8.60156C2.25 8.39062 1.97656 8.19141 1.6875 8.00391C1.40625 7.80859 1.13672 7.58203 0.878906 7.32422C0.621094 7.05859 0.410156 6.72266 0.246094 6.31641C0.0820312 5.91016 0 5.39062 0 4.75781ZM2.80078 14.3789C2.80078 13.7539 3.02344 13.2383 3.46875 12.832C3.91406 12.4258 4.44922 12.2227 5.07422 12.2227C5.69922 12.2227 6.23047 12.4258 6.66797 12.832C7.11328 13.2383 7.33594 13.7539 7.33594 14.3789C7.33594 14.9961 7.11328 15.5117 6.66797 15.9258C6.23047 16.332 5.69922 16.5352 5.07422 16.5352C4.43359 16.5352 3.89453 16.332 3.45703 15.9258C3.01953 15.5117 2.80078 14.9961 2.80078 14.3789Z" fill="white"/>
</svg>
