<svg width="18" height="18" viewBox="0 0 18 18" fill="none" xmlns="http://www.w3.org/2000/svg">
<path d="M15.3151 9.27751C15.9676 9.54001 16.3726 10.3125 16.2226 10.995L15.9151 12.39C15.3826 14.79 13.5001 16.5 10.7851 16.5H7.21505C4.50005 16.5 2.61755 14.79 2.08505 12.39L1.77755 10.995C1.62755 10.3125 2.03254 9.54001 2.68504 9.27751L3.75005 8.85L7.88256 7.19251C8.60256 6.90751 9.39755 6.90751 10.1175 7.19251L14.2501 8.85L15.3151 9.27751Z" stroke="#282828" stroke-opacity="0.9" stroke-width="1.3" stroke-linecap="round" stroke-linejoin="round"/>
<path d="M9 16.5V7.5" stroke="#282828" stroke-opacity="0.9" stroke-width="1.3" stroke-linecap="round" stroke-linejoin="round"/>
<path d="M14.25 6V8.84999L10.1175 7.1925C9.39749 6.9075 8.60251 6.9075 7.88251 7.1925L3.75 8.84999V6C3.75 4.7625 4.7625 3.75 6 3.75H12C13.2375 3.75 14.25 4.7625 14.25 6Z" stroke="#282828" stroke-opacity="0.9" stroke-width="1.3" stroke-linecap="round" stroke-linejoin="round"/>
<path d="M10.875 3.75H7.125V2.25C7.125 1.8375 7.4625 1.5 7.875 1.5H10.125C10.5375 1.5 10.875 1.8375 10.875 2.25V3.75Z" stroke="#282828" stroke-opacity="0.9" stroke-width="1.3" stroke-linecap="round" stroke-linejoin="round"/>
</svg>
